<?xml version="1.0" encoding="UTF-8"?>
<svg width="22px" height="32px" viewBox="0 0 22 32" version="1.1" xmlns="http://www.w3.org/2000/svg" xmlns:xlink="http://www.w3.org/1999/xlink">
    <!-- Generator: Sketch 54.1 (76490) - https://sketchapp.com -->
    <title>priorityWhite</title>
    <desc>Created with Sketch.</desc>
    <g id="Mobile-V1" stroke="none" stroke-width="1" fill="none" fill-rule="evenodd">
        <g id="icons" transform="translate(-597.000000, -327.000000)" fill="#FFFFFF" fill-rule="nonzero">
            <path d="M604.218561,359 C604.094061,359 603.968061,358.975125 603.847687,358.923188 C603.426376,358.741501 603.198502,358.281565 603.309127,357.836317 L606.479364,345.075242 L597.937523,345.075242 C597.628336,345.075242 597.339025,344.922805 597.164213,344.667743 C596.989401,344.412682 596.951589,344.087871 597.063151,343.799497 L603.329501,327.59931 C603.469188,327.238124 603.816562,327 604.203811,327 L612.826339,327 C613.143151,327 613.438524,327.159999 613.611649,327.425373 C613.784648,327.690747 613.812023,328.025558 613.684274,328.315495 L609.973726,336.737962 L617.312447,336.737962 C617.655321,336.737962 617.970819,336.925149 618.135194,337.226085 C618.299568,337.526959 618.286568,337.893582 618.101256,338.182081 L605.007807,358.569002 C604.830746,358.844751 604.529622,359 604.218561,359 Z" id="priorityWhite"></path>
        </g>
    </g>
</svg>