<?xml version="1.0" encoding="UTF-8"?>
<svg width="27px" height="34px" viewBox="0 0 27 34" version="1.1" xmlns="http://www.w3.org/2000/svg" xmlns:xlink="http://www.w3.org/1999/xlink">
    <!-- Generator: Sketch 54.1 (76490) - https://sketchapp.com -->
    <title>archiveWhite</title>
    <desc>Created with Sketch.</desc>
    <g id="Mobile-V1" stroke="none" stroke-width="1" fill="none" fill-rule="evenodd">
        <g id="icons" transform="translate(-645.000000, -327.000000)" fill="#FFFFFF" fill-rule="nonzero">
            <path d="M663.71309,349.215984 C664.049502,348.531946 664.745504,348.098623 665.50779,348.098623 L671.453715,348.098623 C671.619401,348.098623 671.753715,348.232938 671.753715,348.398623 L671.753715,360.7 C671.753715,360.865685 671.619401,361 671.453715,361 L645.3,361 C645.134315,361 645,360.865685 645,360.7 L645,348.398623 C645,348.232938 645.134315,348.098623 645.3,348.098623 L651.245925,348.098623 C652.008212,348.098623 652.704213,348.531946 653.040625,349.215984 L654.393027,351.965866 L662.360689,351.965866 L663.71309,349.215984 Z M663.531933,337.802873 C664.244023,337.090783 665.398475,337.090544 666.11086,337.802339 C666.111097,337.802576 666.111334,337.802813 666.111572,337.80305 C666.823084,338.514759 666.822924,339.668507 666.111216,340.380019 L659.66552,346.823935 C658.955156,347.536435 657.800161,347.536435 657.088196,346.823935 L650.642233,340.379752 C650.642084,340.379604 650.641936,340.379455 650.641788,340.379307 C649.930325,339.66755 649.930564,338.513802 650.642322,337.802339 C651.354404,337.090551 652.508612,337.090571 653.22067,337.802382 L656.554488,341.135045 L656.554488,328.822636 C656.554488,327.816022 657.37051,327 658.377125,327 C659.383739,327 660.199761,327.816022 660.199761,328.822636 L660.199761,341.135045 L663.531933,337.802873 Z" id="archiveWhite"></path>
        </g>
    </g>
</svg>