<?xml version="1.0" encoding="UTF-8"?>
<svg width="31px" height="24px" viewBox="0 0 31 24" version="1.1" xmlns="http://www.w3.org/2000/svg" xmlns:xlink="http://www.w3.org/1999/xlink">
    <!-- Generator: Sketch 54.1 (76490) - https://sketchapp.com -->
    <title>verified</title>
    <desc>Created with Sketch.</desc>
    <g id="Mobile-V1" stroke="none" stroke-width="1" fill="none" fill-rule="evenodd">
        <g id="icons" transform="translate(-53.000000, -389.000000)" fill="#FFFFFF" fill-rule="nonzero">
            <g id="verified" transform="translate(53.000000, 389.000000)">
                <g id="25404" transform="translate(0.249513, 0.775906)">
                    <path d="M29.5703984,3.23151933 L26.9534471,0.61456807 C26.5946172,0.255468546 26.1582115,0.0758513856 25.6452411,0.0758513856 C25.1317989,0.0758513856 24.6953932,0.255468546 24.3365633,0.61456807 L11.7132175,13.2569876 L6.05584981,7.58034397 C5.69661549,7.22110965 5.26047941,7.04169469 4.74750898,7.04169469 C4.23420155,7.04169469 3.79806547,7.22110965 3.43883115,7.58034397 L0.82187989,10.1973626 C0.462645569,10.5565296 0.283095807,10.9928004 0.283095807,11.5060405 C0.283095807,12.0188761 0.462645569,12.4555514 0.82187989,12.8146509 L7.7875884,19.7802246 L10.4047419,22.3971759 C10.763774,22.756545 11.2000449,22.9359599 11.7132175,22.9359599 C12.2261879,22.9359599 12.6624588,22.7560732 13.0216931,22.3971759 L15.6387792,19.7802246 L29.5703984,5.84867279 C29.9292957,5.48943847 30.1091825,5.05323499 30.1091825,4.53999496 C30.1094521,4.02702453 29.9292957,3.59075365 29.5703984,3.23151933 Z" id="Path"></path>
                </g>
            </g>
        </g>
    </g>
</svg>