<?xml version="1.0" encoding="UTF-8"?>
<svg width="29px" height="23px" viewBox="0 0 29 23" version="1.1" xmlns="http://www.w3.org/2000/svg" xmlns:xlink="http://www.w3.org/1999/xlink">
    <!-- Generator: Sketch 54.1 (76490) - https://sketchapp.com -->
    <title>Group 3 Copy</title>
    <desc>Created with Sketch.</desc>
    <g id="Style-Guide" stroke="none" stroke-width="1" fill="none" fill-rule="evenodd">
        <g transform="translate(-499.000000, -5319.000000)" fill-rule="nonzero" id="Group-3-Copy">
            <g transform="translate(498.864102, 5318.679929)">
                <path d="M24.8734401,10.4133299 L4.90027562,-2.24398408 C4.08002245,-2.76198803 3.054706,-2.10885261 3.054706,-1.0728447 L3.054706,24.2643052 C3.054706,25.3003131 4.08002245,25.9534485 4.90027562,25.4354446 L24.8734401,12.7781306 C25.6936933,12.2373795 25.6936933,10.9313339 24.8734401,10.4133299 Z" id="Path" fill="#FF0000" transform="translate(14.271668, 11.595730) rotate(-90.000000) translate(-14.271668, -11.595730) "></path>
                <path d="M15.3277714,8.50690878 L15.3277714,12.5886058 C15.3277714,13.0262725 15.301607,13.4603647 15.2492773,13.8908955 C15.1969476,14.3214263 15.1279685,14.7602757 15.0423381,15.2074569 L13.5438129,15.2074569 C13.4581825,14.7602757 13.3892035,14.3214263 13.3368738,13.8908955 C13.284544,13.4603647 13.2583796,13.0262725 13.2583796,12.5886058 L13.2583796,8.50690878 L15.3277714,8.50690878 Z M13.0157612,17.783493 C13.0157612,17.6122321 13.0478722,17.4528668 13.112095,17.3053921 C13.1763178,17.1579175 13.2643255,17.0294737 13.3761208,16.9200571 C13.4879161,16.8106404 13.6199277,16.723822 13.7721596,16.6595991 C13.9243915,16.5953763 14.0908926,16.5632654 14.271668,16.5632654 C14.4476861,16.5632654 14.6118087,16.5953763 14.7640406,16.6595991 C14.9162724,16.723822 15.0494733,16.8106404 15.1636473,16.9200571 C15.2778212,17.0294737 15.3670182,17.1579175 15.431241,17.3053921 C15.4954639,17.4528668 15.5275748,17.6122321 15.5275748,17.783493 C15.5275748,17.9547539 15.4954639,18.1153085 15.431241,18.2651618 C15.3670182,18.415015 15.2778212,18.5446481 15.1636473,18.6540647 C15.0494733,18.7634814 14.9162724,18.8491106 14.7640406,18.9109548 C14.6118087,18.972799 14.4476861,19.0037206 14.271668,19.0037206 C14.0908926,19.0037206 13.9243915,18.972799 13.7721596,18.9109548 C13.6199277,18.8491106 13.4879161,18.7634814 13.3761208,18.6540647 C13.2643255,18.5446481 13.1763178,18.415015 13.112095,18.2651618 C13.0478722,18.1153085 13.0157612,17.9547539 13.0157612,17.783493 Z" id="!" stroke="#FFFFFF" stroke-width="0.5" fill="#FFFFFF"></path>
            </g>
        </g>
    </g>
</svg>