<?xml version="1.0" encoding="UTF-8"?>
<svg width="40px" height="41px" viewBox="0 0 40 41" version="1.1" xmlns="http://www.w3.org/2000/svg" xmlns:xlink="http://www.w3.org/1999/xlink">
    <!-- Generator: Sketch 54.1 (76490) - https://sketchapp.com -->
    <title>Group</title>
    <desc>Created with Sketch.</desc>
    <g id="Style-Guide" stroke="none" stroke-width="1" fill="none" fill-rule="evenodd">
        <g transform="translate(-853.000000, -5193.000000)" fill="#14C4CE" id="Group">
            <g transform="translate(853.000000, 5193.242572)">
                <circle id="Oval" opacity="0.2" cx="20" cy="20" r="20"></circle>
                <path d="M12.34375,12.95625 C12.34375,10.6644938 14.2082438,8.8 16.5,8.8 C17.5990438,8.8 18.5997375,9.2288375 19.34375,9.92791875 L19.34375,30.0720812 C18.5997375,30.7711625 17.5990438,31.2 16.5,31.2 C14.2082438,31.2 12.34375,29.3355062 12.34375,27.04375 C12.34375,26.9416812 12.3475125,26.8396562 12.3550813,26.7378937 C10.3470438,26.445775 8.8,24.7127062 8.8,22.625 C8.8,21.6627625 9.13473125,20.7366187 9.735025,20 C9.13473125,19.2633812 8.8,18.3372375 8.8,17.375 C8.8,15.2872937 10.3470438,13.554225 12.3550813,13.2621062 C12.3475125,13.1603437 12.34375,13.0583188 12.34375,12.95625 Z M23.9375,16.28125 C23.5750631,16.28125 23.28125,15.9874369 23.28125,15.625 C23.28125,15.2625631 23.5750631,14.96875 23.9375,14.96875 C24.2999369,14.96875 24.59375,15.2625631 24.59375,15.625 C24.59375,15.9874369 24.2999369,16.28125 23.9375,16.28125 Z M31.2,17.375 C31.2,18.3372375 30.8652688,19.2633812 30.264975,20 C30.8652688,20.7366187 31.2,21.6627625 31.2,22.625 C31.2,24.7127062 29.6529563,26.445775 27.6449188,26.7378937 C27.6524875,26.8396562 27.65625,26.9416812 27.65625,27.04375 C27.65625,29.3355062 25.7917563,31.2 23.5,31.2 C22.4009563,31.2 21.4002625,30.7711625 20.65625,30.0720812 L20.65625,25.03125 L22.081625,25.03125 C22.352525,25.7950812 23.0819688,26.34375 23.9375,26.34375 C25.0230688,26.34375 25.90625,25.4605687 25.90625,24.375 C25.90625,23.2894312 25.0230688,22.40625 23.9375,22.40625 C23.0819688,22.40625 22.352525,22.9549187 22.081625,23.71875 L20.65625,23.71875 L20.65625,20.65625 L23.831625,20.65625 C24.102525,21.4200812 24.8319688,21.96875 25.6875,21.96875 C26.7730688,21.96875 27.65625,21.0855687 27.65625,20 C27.65625,18.9144312 26.7730688,18.03125 25.6875,18.03125 C24.8319688,18.03125 24.102525,18.5799187 23.831625,19.34375 L20.65625,19.34375 L20.65625,16.28125 L22.081625,16.28125 C22.352525,17.0450812 23.0819688,17.59375 23.9375,17.59375 C25.0230688,17.59375 25.90625,16.7105687 25.90625,15.625 C25.90625,14.5394312 25.0230688,13.65625 23.9375,13.65625 C23.0819688,13.65625 22.352525,14.2049187 22.081625,14.96875 L20.65625,14.96875 L20.65625,9.92791875 C21.4002625,9.2288375 22.4009563,8.8 23.5,8.8 C25.7917563,8.8 27.65625,10.6644938 27.65625,12.95625 C27.65625,13.0583188 27.6524875,13.1603437 27.6449188,13.2621062 C29.6529563,13.554225 31.2,15.2872937 31.2,17.375 Z M23.9375,25.03125 C23.5750631,25.03125 23.28125,24.7374369 23.28125,24.375 C23.28125,24.0125631 23.5750631,23.71875 23.9375,23.71875 C24.2999369,23.71875 24.59375,24.0125631 24.59375,24.375 C24.59375,24.7374369 24.2999369,25.03125 23.9375,25.03125 Z M25.6875,20.65625 C25.3250631,20.65625 25.03125,20.3624369 25.03125,20 C25.03125,19.6375631 25.3250631,19.34375 25.6875,19.34375 C26.0499369,19.34375 26.34375,19.6375631 26.34375,20 C26.34375,20.3624369 26.0499369,20.65625 25.6875,20.65625 Z" id="Combined-Shape" fill-rule="nonzero"></path>
            </g>
        </g>
    </g>
</svg>