<?xml version="1.0" encoding="UTF-8"?>
<svg width="26px" height="25px" viewBox="0 0 26 25" version="1.1" xmlns="http://www.w3.org/2000/svg" xmlns:xlink="http://www.w3.org/1999/xlink">
    <!-- Generator: Sketch 54.1 (76490) - https://sketchapp.com -->
    <title>campaigns</title>
    <desc>Created with Sketch.</desc>
    <g id="Style-Guide" stroke="none" stroke-width="1" fill="none" fill-rule="evenodd">
        <g transform="translate(-61.000000, -5195.000000)" fill="#171E29" fill-rule="nonzero" id="campaigns">
            <path d="M73.8188704,5210.14288 C73.5623864,5210.11888 73.3074024,5210.07839 73.0494185,5210.06639 L71.057543,5210.06639 L73.5743857,5215.10157 C73.8683673,5215.65804 73.7588742,5216.37649 73.2984029,5216.83696 L71.4970155,5218.62335 C71.2240326,5218.90833 70.8430564,5219.06732 70.4425814,5219.06732 C70.3435876,5219.06732 70.2430939,5219.05682 70.1426002,5219.03583 C69.6356319,5218.93383 69.2231576,5218.58435 69.0386692,5218.10288 L66.0238576,5210.06639 L65.569386,5210.06639 C65.1554119,5210.06639 64.8194329,5209.73041 64.8194329,5209.31643 L64.8194329,5208.56648 L62.5695735,5208.56648 C62.1555994,5208.56648 61.8196204,5208.2305 61.8196204,5207.81653 L61.8196204,5203.31681 C61.8196204,5202.90283 62.1555994,5202.56685 62.5695735,5202.56685 L64.8194329,5202.56685 L64.8194329,5201.8169 C64.8194329,5201.40293 65.1554119,5201.06695 65.569386,5201.06695 L73.041919,5201.06695 C73.3029027,5201.05495 73.5593866,5201.01445 73.8188704,5200.99045 L73.8188704,5210.14288 Z M86.5759299,5195.4303 C86.6479254,5195.54579 86.6989222,5195.67329 86.6989222,5195.81728 L86.6989222,5215.31606 C86.6989222,5215.46005 86.6479254,5215.58754 86.5759299,5215.70303 C86.5594309,5215.72853 86.5459318,5215.74953 86.5279329,5215.77353 C86.4454381,5215.88002 86.3419445,5215.96402 86.2144525,5216.01351 C86.2099528,5216.01501 86.206953,5216.02101 86.2024533,5216.02251 C86.1184585,5216.05101 86.0344638,5216.06601 85.9489691,5216.06601 C85.8394759,5216.06601 85.7374823,5216.04051 85.6429882,5216.00001 C85.6204896,5215.98952 85.6024908,5215.97002 85.5799922,5215.95652 C85.5109965,5215.91752 85.4465005,5215.87102 85.3940038,5215.81253 C85.3865043,5215.80353 85.3760049,5215.80053 85.3700053,5215.79303 C83.0316514,5212.95371 79.7708552,5211.05632 76.1995784,5210.36037 L76.1995784,5200.77447 C79.7708552,5200.07851 83.0316514,5198.17963 85.3700053,5195.34031 C85.3760049,5195.33431 85.3850043,5195.33281 85.391004,5195.32681 C85.4794984,5195.22781 85.5904915,5195.15582 85.7194834,5195.11382 C85.7479817,5195.10482 85.77498,5195.10332 85.8034782,5195.09732 C85.8529751,5195.08682 85.8979723,5195.06732 85.9489691,5195.06732 C86.0239644,5195.06732 86.0914602,5195.08982 86.158956,5195.10932 C86.173955,5195.11382 86.1874542,5195.10632 86.2024533,5195.11082 C86.206953,5195.11232 86.2099528,5195.11832 86.2144525,5195.11982 C86.3419445,5195.16932 86.4454381,5195.25481 86.5279329,5195.3598 C86.5474317,5195.3838 86.5609309,5195.4048 86.5759299,5195.4303 Z"></path>
        </g>
    </g>
</svg>