<?xml version="1.0" encoding="UTF-8"?>
<svg width="26px" height="24px" viewBox="0 0 26 24" version="1.1" xmlns="http://www.w3.org/2000/svg" xmlns:xlink="http://www.w3.org/1999/xlink">
    <!-- Generator: Sketch 54.1 (76490) - https://sketchapp.com -->
    <title>campaigns</title>
    <desc>Created with Sketch.</desc>
    <g id="Mobile-V1" stroke="none" stroke-width="1" fill="none" fill-rule="evenodd">
        <g id="icons" transform="translate(-52.000000, -102.000000)" fill="#FFFFFF" fill-rule="nonzero">
            <path d="M64.942972,117.075558 C64.686488,117.051559 64.431504,117.011062 64.1735201,116.999063 L62.1816446,116.999063 L64.6984873,122.034248 C64.9924689,122.590713 64.8829758,123.309168 64.4225045,123.769639 L62.6211171,125.556028 C62.3481342,125.84101 61.967158,126 61.566683,126 C61.4676892,126 61.3671955,125.989501 61.2667018,125.968502 C60.7597335,125.866508 60.3472592,125.51703 60.1627708,125.03556 L57.1479592,116.999063 L56.6934876,116.999063 C56.2795135,116.999063 55.9435345,116.663084 55.9435345,116.249109 L55.9435345,115.499156 L53.6936751,115.499156 C53.279701,115.499156 52.943722,115.163177 52.943722,114.749203 L52.943722,110.249484 C52.943722,109.83551 53.279701,109.499531 53.6936751,109.499531 L55.9435345,109.499531 L55.9435345,108.749578 C55.9435345,108.335604 56.2795135,107.999625 56.6934876,107.999625 L64.1660206,107.999625 C64.4270043,107.987626 64.6834882,107.947128 64.942972,107.92313 L64.942972,117.075558 Z M77.7000315,102.362977 C77.772027,102.47847 77.8230238,102.605962 77.8230238,102.749953 L77.8230238,122.248734 C77.8230238,122.392725 77.772027,122.520217 77.7000315,122.63571 C77.6835325,122.661209 77.6700334,122.682207 77.6520345,122.706206 C77.5695397,122.812699 77.4660461,122.896694 77.3385541,122.946191 C77.3340544,122.947691 77.3310546,122.95369 77.3265548,122.95519 C77.2425601,122.983689 77.1585653,122.998688 77.0730707,122.998688 C76.9635775,122.998688 76.8615839,122.973189 76.7670898,122.932692 C76.7445912,122.922192 76.7265923,122.902694 76.7040938,122.889194 C76.6350981,122.850197 76.5706021,122.8037 76.5181054,122.745203 C76.5106058,122.736204 76.5001065,122.733204 76.4941069,122.725705 C74.155753,119.886382 70.8949568,117.989001 67.32368,117.293044 L67.32368,107.707143 C70.8949568,107.011187 74.155753,105.112305 76.4941069,102.272983 C76.5001065,102.266983 76.5091059,102.265483 76.5151056,102.259484 C76.6036,102.16049 76.7145931,102.088494 76.843585,102.046497 C76.8720833,102.037498 76.8990816,102.035998 76.9275798,102.029998 C76.9770767,102.019499 77.0220739,102 77.0730707,102 C77.148066,102 77.2155618,102.022499 77.2830576,102.041997 C77.2980566,102.046497 77.3115558,102.038998 77.3265548,102.043497 C77.3310546,102.044997 77.3340544,102.050997 77.3385541,102.052497 C77.4660461,102.101994 77.5695397,102.187488 77.6520345,102.292482 C77.6715333,102.31648 77.6850324,102.337479 77.7000315,102.362977 Z" id="campaigns"></path>
        </g>
    </g>
</svg>