<?xml version="1.0" encoding="UTF-8"?>
<svg width="40px" height="40px" viewBox="0 0 40 40" version="1.1" xmlns="http://www.w3.org/2000/svg" xmlns:xlink="http://www.w3.org/1999/xlink">
    <!-- Generator: Sketch 54.1 (76490) - https://sketchapp.com -->
    <title>Group 11</title>
    <desc>Created with Sketch.</desc>
    <g id="Mobile-V1" stroke="none" stroke-width="1" fill="none" fill-rule="evenodd">
        <g id="icons" transform="translate(-135.000000, -522.000000)" fill="#235BED">
            <g id="Group-11" transform="translate(135.000000, 522.000000)">
                <circle id="Oval" opacity="0.2" cx="20" cy="20" r="20"></circle>
                <g id="162722" transform="translate(19.708333, 19.500000) scale(-1, 1) translate(-19.708333, -19.500000) translate(9.708333, 10.000000)" fill-rule="nonzero">
                    <path d="M9.37803267,12.0619074 C9.18566969,12.0439085 8.99443165,12.0135354 8.80094374,12.004536 L7.30703711,12.004536 L9.19466913,15.7809249 C9.41515535,16.1982739 9.33303548,16.7371152 8.98768207,17.0824686 L7.63664151,18.4222599 C7.4319043,18.6359965 7.14617216,18.755239 6.84581593,18.755239 C6.77157057,18.755239 6.69620028,18.7473645 6.62083,18.7316155 C6.24060376,18.6551203 5.93124809,18.3930117 5.79288174,18.0319092 L3.53177306,12.004536 L3.19091936,12.004536 C2.88043877,12.004536 2.62845452,11.7525517 2.62845452,11.4420711 L2.62845452,10.8796063 L0.941059981,10.8796063 C0.630579386,10.8796063 0.378595135,10.627622 0.378595135,10.3171414 L0.378595135,6.94235235 C0.378595135,6.63187175 0.630579386,6.3798875 0.941059981,6.3798875 L2.62845452,6.3798875 L2.62845452,5.81742265 C2.62845452,5.50694206 2.88043877,5.25495781 3.19091936,5.25495781 L8.79531909,5.25495781 C8.99105686,5.24595837 9.18341983,5.21558527 9.37803267,5.19758639 L9.37803267,12.0619074 Z M18.9458273,1.02747203 C18.9998239,1.11409161 19.0380715,1.20971064 19.0380715,1.31770389 L19.0380715,15.9417899 C19.0380715,16.0497831 18.9998239,16.1454022 18.9458273,16.2320217 C18.9334531,16.2511455 18.9233287,16.2668946 18.9098295,16.2848934 C18.8479584,16.3647634 18.7703383,16.4277595 18.6747192,16.4648822 C18.6713445,16.4660071 18.6690946,16.4705068 18.6657198,16.4716318 C18.6027237,16.4930054 18.5397277,16.5042547 18.4756067,16.5042547 C18.3934868,16.5042547 18.3169916,16.4851309 18.246121,16.4547578 C18.2292471,16.4468833 18.2157479,16.4322592 18.198874,16.4221349 C18.1471272,16.3928867 18.0987552,16.3580139 18.0593827,16.3141416 C18.0537581,16.307392 18.0458835,16.3051422 18.0413838,16.2995175 C16.2876184,14.1700256 13.8420213,12.7469896 11.1635637,12.2250222 L11.1635637,5.03559652 C13.8420213,4.51362914 16.2876184,3.08946815 18.0413838,0.959976244 C18.0458835,0.955476525 18.0526331,0.954351595 18.0571328,0.949851877 C18.1235037,0.875606517 18.2067485,0.821609892 18.3034924,0.79011186 C18.3248661,0.783362282 18.3451148,0.782237352 18.3664885,0.777737634 C18.4036112,0.769863126 18.4373591,0.75523904 18.4756067,0.75523904 C18.5318532,0.75523904 18.582475,0.772112985 18.6330968,0.786737071 C18.6443461,0.79011186 18.6544705,0.784487212 18.6657198,0.787862001 C18.6690946,0.788986931 18.6713445,0.793486649 18.6747192,0.794611579 C18.7703383,0.831734259 18.8479584,0.895855251 18.9098295,0.97460033 C18.9244536,0.992599205 18.934578,1.00834822 18.9458273,1.02747203 Z" id="campaigns" transform="translate(9.708333, 9.755239) scale(-1, 1) translate(-9.708333, -9.755239) "></path>
                </g>
            </g>
        </g>
    </g>
</svg>