<?xml version="1.0" encoding="UTF-8"?>
<svg width="31px" height="26px" viewBox="0 0 31 26" version="1.1" xmlns="http://www.w3.org/2000/svg" xmlns:xlink="http://www.w3.org/1999/xlink">
    <!-- Generator: Sketch 54.1 (76490) - https://sketchapp.com -->
    <title>Chat Bubbles</title>
    <desc>Created with Sketch.</desc>
    <g id="Style-Guide" stroke="none" stroke-width="1" fill="none" fill-rule="evenodd">
        <g transform="translate(-147.000000, -5255.000000)" fill="#171E29" fill-rule="nonzero" id="Chat-Bubbles">
            <path d="M168.221959,5271.2925 L158.705498,5271.2925 L154.688135,5275.31066 C154.497569,5275.50123 154.24271,5275.60239 153.983532,5275.60239 C153.855349,5275.60239 153.725961,5275.57768 153.6026,5275.52675 C153.230408,5275.37255 152.987705,5275.0094 152.987705,5274.60636 L152.987705,5271.2925 L150.683932,5271.2925 C148.938498,5271.2925 147.518543,5269.87224 147.518543,5268.12661 L147.518543,5258.54224 C147.518543,5256.7965 148.938498,5255.37604 150.683932,5255.37604 L168.221959,5255.37604 C169.967795,5255.37604 171.387851,5256.7965 171.387851,5258.54224 L171.387851,5268.12661 C171.387851,5269.87224 169.967795,5271.2925 168.221959,5271.2925 Z M153.74215,5264.67828 C154.596341,5264.67828 155.2888,5263.98582 155.2888,5263.13163 C155.2888,5262.27744 154.596341,5261.58498 153.74215,5261.58498 C152.88796,5261.58498 152.195501,5262.27744 152.195501,5263.13163 C152.195501,5263.98582 152.88796,5264.67828 153.74215,5264.67828 Z M159.453197,5264.67828 C160.307387,5264.67828 160.999846,5263.98582 160.999846,5263.13163 C160.999846,5262.27744 160.307387,5261.58498 159.453197,5261.58498 C158.599006,5261.58498 157.906547,5262.27744 157.906547,5263.13163 C157.906547,5263.98582 158.599006,5264.67828 159.453197,5264.67828 Z M165.164243,5264.67828 C166.018434,5264.67828 166.710892,5263.98582 166.710892,5263.13163 C166.710892,5262.27744 166.018434,5261.58498 165.164243,5261.58498 C164.310052,5261.58498 163.617594,5262.27744 163.617594,5263.13163 C163.617594,5263.98582 164.310052,5264.67828 165.164243,5264.67828 Z M174.583076,5263.66452 C176.111122,5263.66452 177.354173,5264.90777 177.354274,5266.43582 L177.354274,5274.27757 C177.354274,5275.80582 176.111223,5277.04927 174.583176,5277.04927 L172.879331,5277.04927 L172.879331,5279.57937 C172.879331,5279.9823 172.636728,5280.34535 172.264536,5280.49955 C172.141175,5280.55048 172.011787,5280.5755 171.883604,5280.5755 C171.624426,5280.5755 171.369467,5280.47424 171.179001,5280.28367 L167.945201,5277.04937 L160.233946,5277.04937 C158.866329,5277.04937 157.727853,5276.05334 157.503433,5274.74871 L159.365598,5272.88604 L168.221959,5272.88604 C170.846389,5272.88604 172.981395,5270.75104 172.981395,5268.12661 L172.981395,5263.66452 L174.583076,5263.66452 Z"></path>
        </g>
    </g>
</svg>