<?xml version="1.0" encoding="UTF-8"?>
<svg width="27px" height="23px" viewBox="0 0 27 23" version="1.1" xmlns="http://www.w3.org/2000/svg" xmlns:xlink="http://www.w3.org/1999/xlink">
    <!-- Generator: Sketch 54.1 (76490) - https://sketchapp.com -->
    <title>Combined Shape</title>
    <desc>Created with Sketch.</desc>
    <g id="Style-Guide" stroke="none" stroke-width="1" fill="none" fill-rule="evenodd">
        <g transform="translate(-500.000000, -5196.000000)" fill="#171E29" fill-rule="nonzero" id="Combined-Shape">
            <path d="M522.901798,5213.3795 L512.550837,5213.3795 L508.181191,5217.75002 C507.973914,5217.95729 507.696706,5218.06732 507.414801,5218.06732 C507.275378,5218.06732 507.134644,5218.04044 507.000465,5217.98505 C506.595636,5217.81732 506.33165,5217.42233 506.33165,5216.98395 L506.33165,5213.3795 L503.825859,5213.3795 C501.927366,5213.3795 500.382895,5211.8347 500.382895,5209.93599 L500.382895,5199.51116 C500.382895,5197.61234 501.927366,5196.06732 503.825859,5196.06732 L522.901798,5196.06732 C524.800727,5196.06732 526.345308,5197.61234 526.345308,5199.51116 L526.345308,5209.93599 C526.345308,5211.8347 524.800727,5213.3795 522.901798,5213.3795 Z M506.573932,5206.81494 C507.676905,5206.81494 508.571041,5205.9208 508.571041,5204.81783 C508.571041,5203.71486 507.676905,5202.82072 506.573932,5202.82072 C505.47096,5202.82072 504.576823,5203.71486 504.576823,5204.81783 C504.576823,5205.9208 505.47096,5206.81494 506.573932,5206.81494 Z M513.364102,5206.81494 C514.467074,5206.81494 515.36121,5205.9208 515.36121,5204.81783 C515.36121,5203.71486 514.467074,5202.82072 513.364102,5202.82072 C512.261129,5202.82072 511.366993,5203.71486 511.366993,5204.81783 C511.366993,5205.9208 512.261129,5206.81494 513.364102,5206.81494 Z M520.154271,5206.81494 C521.257244,5206.81494 522.15138,5205.9208 522.15138,5204.81783 C522.15138,5203.71486 521.257244,5202.82072 520.154271,5202.82072 C519.051298,5202.82072 518.157162,5203.71486 518.157162,5204.81783 C518.157162,5205.9208 519.051298,5206.81494 520.154271,5206.81494 Z"></path>
        </g>
    </g>
</svg>