<?xml version="1.0" encoding="UTF-8"?>
<svg width="40px" height="41px" viewBox="0 0 40 41" version="1.1" xmlns="http://www.w3.org/2000/svg" xmlns:xlink="http://www.w3.org/1999/xlink">
    <!-- Generator: Sketch 54.1 (76490) - https://sketchapp.com -->
    <title>Group 11</title>
    <desc>Created with Sketch.</desc>
    <g id="Style-Guide" stroke="none" stroke-width="1" fill="none" fill-rule="evenodd">
        <g transform="translate(-1093.000000, -5193.000000)" fill="#235BED" id="Group-11">
            <g transform="translate(1093.000000, 5193.242572)">
                <circle id="Oval" opacity="0.2" cx="20" cy="20" r="20"></circle>
                <g id="285783" transform="translate(8.000000, 7.000000)" fill-rule="nonzero">
                    <path d="M21.2826573,9.41600962 C21.1450426,7.10292538 20.1781035,4.95099767 18.5236173,3.30522013 C16.736445,1.52756984 14.35819,0.548572645 11.826865,0.548572645 C9.29539644,0.548572645 6.91714142,1.52756984 5.13006481,3.30522013 C3.47562654,4.95090198 2.50863952,7.10292538 2.37112056,9.41600962 C1.08359092,10.3762499 0.248237393,11.9109213 0.248237393,13.6369422 C0.248237393,16.5389559 2.60917096,18.8999852 5.51128039,18.8999852 C6.09260184,18.8999852 6.56386985,18.4287172 6.56386985,17.8473957 L6.56386985,9.42653647 C6.56386985,8.84521502 6.09260184,8.37394701 5.51128039,8.37394701 C5.20825061,8.37394701 4.91158479,8.40117328 4.62238347,8.45050593 C5.33476423,5.14201218 8.29419715,2.65379941 11.826865,2.65379941 C15.3595328,2.65379941 18.3190136,5.14201218 19.0313944,8.45050593 C18.742193,8.40117328 18.4455272,8.37394701 18.1424975,8.37394701 C17.561176,8.37394701 17.089908,8.84521502 17.089908,9.42653647 L17.089908,17.8473957 C17.089908,18.4287172 17.561176,18.8999852 18.1424975,18.8999852 C18.5028986,18.8999852 18.8548782,18.8634283 19.1950869,18.7940946 L19.1950869,21.2842692 C19.1950869,21.8114731 18.7661656,22.2403944 18.2389617,22.2403944 L16.4234147,22.2403944 C16.2787662,21.8318569 15.8900862,21.5386362 15.4320246,21.5386362 L11.826865,21.5386362 C11.2455435,21.5386362 10.7742755,22.0099042 10.7742755,22.5912257 L10.7742755,23.2929839 L10.7742755,23.9947421 C10.7742755,24.5760635 11.2455435,25.0473315 11.826865,25.0473315 L15.4320246,25.0473315 C15.890134,25.0473315 16.2787184,24.7541587 16.4234147,24.3455733 L18.2389617,24.3455733 C19.9269902,24.3455733 21.3003137,22.9722498 21.3003137,21.2842213 L21.3003137,17.8443812 C22.5777471,16.8832796 23.4055404,15.3549722 23.4055404,13.6368465 C23.4055404,11.9109213 22.5701391,10.3763456 21.2826573,9.41600962 Z" id="Path"></path>
                </g>
            </g>
        </g>
    </g>
</svg>