<?xml version="1.0" encoding="UTF-8"?>
<svg width="40px" height="41px" viewBox="0 0 40 41" version="1.1" xmlns="http://www.w3.org/2000/svg" xmlns:xlink="http://www.w3.org/1999/xlink">
    <!-- Generator: Sketch 54.1 (76490) - https://sketchapp.com -->
    <title>Group</title>
    <desc>Created with Sketch.</desc>
    <g id="Style-Guide" stroke="none" stroke-width="1" fill="none" fill-rule="evenodd">
        <g transform="translate(-1013.000000, -5193.000000)" fill="#235BED" id="Group">
            <g transform="translate(1013.000000, 5193.242572)">
                <circle id="Oval" opacity="0.2" cx="20" cy="20" r="20"></circle>
                <path d="M20.0000668,8.8466281 C13.8145044,8.8466281 8.79999957,13.8611329 8.79999957,20.0466953 C8.79999957,25.5944222 12.8378437,30.1888693 18.1321197,31.0785525 L18.1321197,22.3833327 L15.4303368,22.3833327 L15.4303368,19.2542775 L18.1321197,19.2542775 L18.1321197,16.9470334 C18.1321197,14.2699676 19.7671913,12.8111224 22.1556679,12.8111224 C23.2996035,12.8111224 24.2826773,12.8963631 24.56806,12.9339065 L24.56806,15.732153 L22.9114777,15.7329546 C21.6128262,15.7329546 21.3624484,16.3499477 21.3624484,17.2556635 L21.3624484,19.2526742 L24.4611751,19.2526742 L24.0570166,22.3817295 L21.3624484,22.3817295 L21.3624484,31.1533719 C26.9038957,30.4789282 31.2000004,25.7674421 31.2000004,20.0434888 C31.2000004,13.8611329 26.1854956,8.8466281 20.0000668,8.8466281 Z" id="Path" fill-rule="nonzero"></path>
            </g>
        </g>
    </g>
</svg>