<?xml version="1.0" encoding="UTF-8"?>
<svg width="31px" height="26px" viewBox="0 0 31 26" version="1.1" xmlns="http://www.w3.org/2000/svg" xmlns:xlink="http://www.w3.org/1999/xlink">
    <!-- Generator: Sketch 54.1 (76490) - https://sketchapp.com -->
    <title>1342287</title>
    <desc>Created with Sketch.</desc>
    <g id="Style-Guide" stroke="none" stroke-width="1" fill="none" fill-rule="evenodd">
        <g transform="translate(-672.000000, -5317.000000)" fill="#235BED" fill-rule="nonzero" id="1342287">
            <g transform="translate(672.545782, 5317.636470)">
                <path d="M24.0503626,3.55424077 C24.0503626,5.51717207 22.4590531,7.10848155 20.4961218,7.10848155 C18.5331905,7.10848155 16.941881,5.51717207 16.941881,3.55424077 C16.941881,1.59130948 18.5331905,1.07469589e-13 20.4961218,1.07469589e-13 C22.4590531,1.07469589e-13 24.0503626,1.59130948 24.0503626,3.55424077 Z M13.3876402,12.4398427 C13.3876402,14.402774 11.7963308,15.9940835 9.83339947,15.9940835 C7.87046818,15.9940835 6.2791587,14.402774 6.2791587,12.4398427 C6.2791587,10.4769114 7.87046818,8.88560193 9.83339947,8.88560193 C11.7963308,8.88560193 13.3876402,10.4769114 13.3876402,12.4398427 Z M24.0503626,21.3254446 C24.0503626,23.2883759 22.4590531,24.8796854 20.4961218,24.8796854 C18.5331905,24.8796854 16.941881,23.2883759 16.941881,21.3254446 C16.941881,19.3625133 18.5331905,17.7712039 20.4961218,17.7712039 C22.4590531,17.7712039 24.0503626,19.3625133 24.0503626,21.3254446 Z M15.1647606,3.55424077 C15.1647606,4.180398 15.2931854,4.77277147 15.4924172,5.33136116 L1.77712039,5.33136116 C0.795643898,5.33136116 -2.03079074e-14,4.53571726 -2.04281037e-14,3.55424077 C-2.05482999e-14,2.57276428 0.795643898,1.77712039 1.77712039,1.77712039 L15.4921858,1.77712039 C15.2929539,2.33571008 15.1647606,2.92808354 15.1647606,3.55424077 Z M25.5000578,5.33136116 C25.6992897,4.77277147 25.8274829,4.180398 25.8274829,3.55424077 C25.8274829,2.92808354 25.6992897,2.33571008 25.5000578,1.77712039 L28.5524009,1.77712039 C29.5338774,1.77712039 30.3295213,2.57276428 30.3295213,3.55424077 C30.3295213,4.53571726 29.5338774,5.33136116 28.5524009,5.33136116 L25.5000578,5.33136116 Z M4.50203831,12.4398427 C4.50203831,13.0659999 4.63046304,13.6583734 4.82969488,14.2169631 L1.77712039,14.2169631 C0.795643898,14.2169631 -5.27264198e-14,13.4213192 -5.2846616e-14,12.4398427 C-5.29668122e-14,11.4583662 0.795643898,10.6627223 1.77712039,10.6627223 L4.8294635,10.6627223 C4.6302316,11.221312 4.50203831,11.8136855 4.50203831,12.4398427 Z M15.1647606,12.4398427 C15.1647606,11.8136855 15.0365673,11.221312 14.8373354,10.6627223 L28.5524009,10.6627223 C29.5338774,10.6627223 30.3295213,11.4583662 30.3295213,12.4398427 C30.3295213,13.4213192 29.5338774,14.2169631 28.5524009,14.2169631 L14.8373354,14.2169631 C15.0365673,13.6583734 15.1647606,13.0659999 15.1647606,12.4398427 Z M15.1647606,21.3254446 C15.1647606,21.9516019 15.2931854,22.5439753 15.4924172,23.102565 L1.77712039,23.102565 C0.795643898,23.102565 -2.03079074e-14,22.3069211 -2.04281037e-14,21.3254446 C-2.05482999e-14,20.3439681 0.795643898,19.5483243 1.77712039,19.5483243 L15.4921858,19.5483243 C15.2929539,20.1069139 15.1647606,20.6992874 15.1647606,21.3254446 Z M25.5000578,23.102565 C25.6992897,22.5439753 25.8274829,21.9516019 25.8274829,21.3254446 C25.8274829,20.6992874 25.6992897,20.1069139 25.5000578,19.5483243 L28.5524009,19.5483243 C29.5338774,19.5483243 30.3295213,20.3439681 30.3295213,21.3254446 C30.3295213,22.3069211 29.5338774,23.102565 28.5524009,23.102565 L25.5000578,23.102565 Z" id="Combined-Shape"></path>
            </g>
        </g>
    </g>
</svg>