<?xml version="1.0" encoding="UTF-8"?>
<svg width="20px" height="18px" viewBox="0 0 20 18" version="1.1" xmlns="http://www.w3.org/2000/svg" xmlns:xlink="http://www.w3.org/1999/xlink">
    <!-- Generator: Sketch 54.1 (76490) - https://sketchapp.com -->
    <title>Combined Shape</title>
    <desc>Created with Sketch.</desc>
    <g id="Mobile-V1" stroke="none" stroke-width="1" fill="none" fill-rule="evenodd">
        <g id="Campaigns-Folders-V1" transform="translate(-27.000000, -296.000000)" fill="#235BED" fill-rule="nonzero">
            <g id="Group-5-Copy-5" transform="translate(0.000000, 267.000000)">
                <g id="Group-2" transform="translate(27.000000, 25.500000)">
                    <path d="M18.6222821,6.11452514 C19.1664302,6.11452514 19.6089385,6.55703352 19.6089385,7.10150838 L19.6089385,9.05586592 L0,9.05586592 L0,4.48698324 C0,3.94250838 0.44250838,3.5 0.986656425,3.5 L8.17039106,3.5 C8.71453911,3.5 9.15704749,3.9428352 9.15704749,4.48698324 L9.15704749,6.11452514 L18.6222821,6.11452514 Z M0,20.5130168 L0,10.3882682 L19.6089385,10.3882682 L19.6089385,20.5130168 C19.6089385,21.0574916 19.1664302,21.5 18.6222821,21.5 L0.986656425,21.5 C0.44250838,21.5 0,21.0571648 0,20.5130168 Z" id="Combined-Shape"></path>
                </g>
            </g>
        </g>
    </g>
</svg>