<?xml version="1.0" encoding="UTF-8"?>
<svg width="36px" height="31px" viewBox="0 0 36 31" version="1.1" xmlns="http://www.w3.org/2000/svg" xmlns:xlink="http://www.w3.org/1999/xlink">
    <!-- Generator: Sketch 54.1 (76490) - https://sketchapp.com -->
    <title>messages</title>
    <desc>Created with Sketch.</desc>
    <g id="Mobile-V1" stroke="none" stroke-width="1" fill="none" fill-rule="evenodd">
        <g id="icons" transform="translate(-47.000000, -175.000000)">
            <g id="messages" transform="translate(47.000000, 175.000000)">
                <path d="M21.1689236,21.3612305 L11.6524624,21.3612305 L7.6350998,25.3793968 C7.4445335,25.5699631 7.18967493,25.671123 6.93049673,25.671123 C6.80231402,25.671123 6.67292583,25.6464106 6.54956504,25.5954791 C6.17737308,25.4412781 5.93466977,25.0781273 5.93466977,24.6750951 L5.93466977,21.3612305 L3.63089699,21.3612305 C1.88546237,21.3612305 0.465507355,19.9409741 0.465507355,18.1953386 L0.465507355,8.61096875 C0.465507355,6.86523276 1.88546237,5.44477547 3.63089699,5.44477547 L21.1689236,5.44477547 C22.91476,5.44477547 24.3348155,6.86523276 24.3348155,8.61096875 L24.3348155,18.1953386 C24.3348155,19.9409741 22.91476,21.3612305 21.1689236,21.3612305 Z M6.68911509,14.7470094 C7.54330589,14.7470094 8.23576435,14.054551 8.23576435,13.2003602 C8.23576435,12.3461694 7.54330589,11.6537109 6.68911509,11.6537109 C5.83492429,11.6537109 5.14246582,12.3461694 5.14246582,13.2003602 C5.14246582,14.054551 5.83492429,14.7470094 6.68911509,14.7470094 Z M12.4001614,14.7470094 C13.2543522,14.7470094 13.9468107,14.054551 13.9468107,13.2003602 C13.9468107,12.3461694 13.2543522,11.6537109 12.4001614,11.6537109 C11.5459706,11.6537109 10.8535122,12.3461694 10.8535122,13.2003602 C10.8535122,14.054551 11.5459706,14.7470094 12.4001614,14.7470094 Z M18.1112078,14.7470094 C18.9653986,14.7470094 19.657857,14.054551 19.657857,13.2003602 C19.657857,12.3461694 18.9653986,11.6537109 18.1112078,11.6537109 C17.257017,11.6537109 16.5645585,12.3461694 16.5645585,13.2003602 C16.5645585,14.054551 17.257017,14.7470094 18.1112078,14.7470094 Z M27.5300408,13.7332543 C29.0580871,13.7332543 30.301138,14.976506 30.3012384,16.5045524 L30.3012384,24.3463004 C30.3012384,25.8745477 29.0581876,27.1180004 27.5301412,27.1180004 L25.8262957,27.1180004 L25.8262957,29.648102 C25.8262957,30.0510337 25.5836928,30.4140841 25.2115008,30.5682851 C25.0881401,30.6192166 24.9587519,30.6442304 24.8305692,30.6442304 C24.571391,30.6442304 24.3164319,30.54297 24.1259661,30.3524037 L20.8921655,27.1181008 L13.1809107,27.1181008 C11.8132936,27.1181008 10.6748181,26.122073 10.4503979,24.8174422 L12.3125632,22.9547747 L21.1689236,22.9547747 C23.7933541,22.9547747 25.9283596,20.8197691 25.9283596,18.1953386 L25.9283596,13.7332543 L27.5300408,13.7332543 Z" id="Chat-Bubbles" fill="#FFFFFF" fill-rule="nonzero"></path>
                <g id="beacon" transform="translate(13.043918, 0.259270)">
                    <circle id="Oval" fill-opacity="0.4" fill="#FF0000" cx="11.6370913" cy="11.6370913" r="11"></circle>
                    <circle id="Oval" fill="#F40000" cx="11.6370913" cy="11.6370913" r="6"></circle>
                </g>
            </g>
        </g>
    </g>
</svg>