<?xml version="1.0" encoding="UTF-8"?>
<svg width="16px" height="14px" viewBox="0 0 16 14" version="1.1" xmlns="http://www.w3.org/2000/svg" xmlns:xlink="http://www.w3.org/1999/xlink">
    <!-- Generator: Sketch 54.1 (76490) - https://sketchapp.com -->
    <title>messageTabWhite</title>
    <desc>Created with Sketch.</desc>
    <g id="Mobile-V1" stroke="none" stroke-width="1" fill="none" fill-rule="evenodd">
        <g id="icons" transform="translate(-594.000000, -235.000000)" fill="#FFFFFF" fill-rule="nonzero">
            <path d="M607.530904,245.402342 L601.311335,245.402342 L598.685752,248.028451 C598.561205,248.152997 598.39464,248.219111 598.225252,248.219111 C598.141477,248.219111 598.056914,248.20296 597.976291,248.169673 C597.733041,248.068894 597.57442,247.831553 597.57442,247.568148 L597.57442,245.402342 L596.068769,245.402342 C594.928024,245.402342 594,244.474121 594,243.333245 L594,237.069294 C594,235.928353 594.928024,235 596.068769,235 L607.530904,235 C608.671911,235 609.600001,235.928353 609.600001,237.069294 L609.600001,243.333245 C609.600001,244.474121 608.671911,245.402342 607.530904,245.402342 Z M597.72,241.457906 C598.382742,241.457906 598.92,240.920647 598.92,240.257906 C598.92,239.595164 598.382742,239.057906 597.72,239.057906 C597.057258,239.057906 596.52,239.595164 596.52,240.257906 C596.52,240.920647 597.057258,241.457906 597.72,241.457906 Z M601.8,241.457906 C602.462742,241.457906 603,240.920647 603,240.257906 C603,239.595164 602.462742,239.057906 601.8,239.057906 C601.137259,239.057906 600.6,239.595164 600.6,240.257906 C600.6,240.920647 601.137259,241.457906 601.8,241.457906 Z M605.88,241.457906 C606.542742,241.457906 607.080001,240.920647 607.080001,240.257906 C607.080001,239.595164 606.542742,239.057906 605.88,239.057906 C605.217259,239.057906 604.68,239.595164 604.68,240.257906 C604.68,240.920647 605.217259,241.457906 605.88,241.457906 Z" id="messageTabWhite"></path>
        </g>
    </g>
</svg>