<?xml version="1.0" encoding="UTF-8"?>
<svg width="15px" height="12px" viewBox="0 0 15 12" version="1.1" xmlns="http://www.w3.org/2000/svg" xmlns:xlink="http://www.w3.org/1999/xlink">
    <!-- Generator: Sketch 54.1 (76490) - https://sketchapp.com -->
    <title>notesWhite</title>
    <desc>Created with Sketch.</desc>
    <g id="Mobile-V1" stroke="none" stroke-width="1" fill="none" fill-rule="evenodd">
        <g id="icons" transform="translate(-595.000000, -262.000000)" fill="#FFFFFF" fill-rule="nonzero">
            <path d="M608.7375,262 C609.241248,262 609.650113,262.407139 609.648388,262.910888 L609.648388,269.349209 C609.525901,269.299179 609.391355,269.273301 609.251599,269.273301 L606.751833,269.273301 C605.958257,269.273301 605.313045,269.918514 605.313045,270.71209 L605.313045,273.215307 C605.313045,273.35332 605.340665,273.487883 605.390677,273.612095 L595.912613,273.612095 C595.408864,273.612095 595,273.20323 595,272.699482 L595,262.912613 C595,262.408864 595.408864,262 595.912613,262 L608.7375,262 Z M598.424199,264.72124 C597.927143,264.72124 597.524199,265.124184 597.524199,265.62124 C597.524199,266.118297 597.927143,266.52124 598.424199,266.52124 L606.224199,266.52124 C606.721256,266.52124 607.124199,266.118297 607.124199,265.62124 C607.124199,265.124184 606.721256,264.72124 606.224199,264.72124 L598.424199,264.72124 Z M598.424199,269.064392 C597.927143,269.064392 597.524199,269.467336 597.524199,269.964392 C597.524199,270.461449 597.927143,270.864392 598.424199,270.864392 L601.929724,270.864392 C602.426781,270.864392 602.829724,270.461449 602.829724,269.964392 C602.829724,269.467336 602.426781,269.064392 601.929724,269.064392 L598.424199,269.064392 Z M608.814675,270.752627 C608.955231,270.752627 609.048586,270.868009 609.049635,270.986538 C609.049635,271.044229 609.027607,271.102969 608.980405,271.150171 L607.226598,272.903979 C607.079748,273.051877 606.828005,272.946985 606.828005,272.739297 L606.828005,271.2194 C606.828005,270.961353 607.036731,270.752627 607.294778,270.752627 L608.814675,270.752627 Z" id="notesWhite"></path>
        </g>
    </g>
</svg>