<?xml version="1.0" encoding="UTF-8"?>
<svg width="40px" height="41px" viewBox="0 0 40 41" version="1.1" xmlns="http://www.w3.org/2000/svg" xmlns:xlink="http://www.w3.org/1999/xlink">
    <!-- Generator: Sketch 54.1 (76490) - https://sketchapp.com -->
    <title>Group 11</title>
    <desc>Created with Sketch.</desc>
    <g id="Style-Guide" stroke="none" stroke-width="1" fill="none" fill-rule="evenodd">
        <g transform="translate(-853.000000, -5273.000000)" fill="#235BED" id="Group-11">
            <g transform="translate(853.000000, 5273.242572)">
                <circle id="Oval" opacity="0.2" cx="20" cy="20" r="20"></circle>
                <g id="162722" transform="translate(20.208333, 20.000000) scale(-1, 1) translate(-20.208333, -20.000000) translate(11.708333, 9.000000)" fill-rule="nonzero">
                    <path d="M5.81699928,18.9432734 L10.916942,18.9432734 C10.9169889,18.9488929 10.9173635,18.9544657 10.9173635,18.9600852 C10.9173635,20.3686293 9.77551467,21.5104781 8.36697065,21.5104781 C6.95842663,21.5104781 5.81657781,20.3686293 5.81657781,18.9600852 C5.81657781,18.9544657 5.81695245,18.9488929 5.81699928,18.9432734 Z M16.5097675,15.755294 C16.7515024,16.1104505 16.7771183,16.5701778 16.576172,16.9500136 C16.3752726,17.3297557 15.9808727,17.5673228 15.5512101,17.5673228 L1.1826375,17.5673228 C0.752974909,17.5673228 0.358575091,17.3298025 0.157675634,16.9500136 C-0.0432238225,16.5702246 -0.0176548007,16.1104974 0.224126993,15.7553409 L2.51948524,12.3835081 C2.51948524,11.7397869 2.51948524,9.28740861 2.51948524,8.1767952 C2.51948524,5.33985136 4.53990625,2.97504466 7.22029837,2.44207572 L7.22029837,1.14662545 C7.22029837,0.513394112 7.73364565,3.90798505e-14 8.36692382,3.90798505e-14 C9.00020199,3.90798505e-14 9.51354928,0.513394112 9.51359611,1.14662545 L9.51359611,2.44202889 C12.1939882,2.974951 14.2144092,5.3397577 14.2144092,8.17674837 C14.2144092,8.82917989 14.2144092,11.3512876 14.2144092,12.3834612 L16.5097675,15.755294 Z" id="Combined-Shape"></path>
                </g>
            </g>
        </g>
    </g>
</svg>