<?xml version="1.0" encoding="UTF-8"?>
<svg width="40px" height="41px" viewBox="0 0 40 41" version="1.1" xmlns="http://www.w3.org/2000/svg" xmlns:xlink="http://www.w3.org/1999/xlink">
    <!-- Generator: Sketch 54.1 (76490) - https://sketchapp.com -->
    <title>Group 11</title>
    <desc>Created with Sketch.</desc>
    <g id="Style-Guide" stroke="none" stroke-width="1" fill="none" fill-rule="evenodd">
        <g transform="translate(-1013.000000, -5273.000000)" fill="#235BED" id="Group-11">
            <g transform="translate(1013.000000, 5273.242572)">
                <circle id="Oval" opacity="0.2" cx="20" cy="20" r="20"></circle>
                <g id="319946" transform="translate(12.000000, 8.916072)" fill-rule="nonzero">
                    <path d="M20.5960547,9.73298047 C20.6886523,9.95757813 20.6886523,10.2096328 20.5960977,10.4331992 C20.5493477,10.5459492 20.481543,10.6476992 20.3971953,10.7320469 L17.6480977,13.4811445 C17.4693477,13.6608398 17.2346523,13.7497422 17,13.7497422 C16.7653047,13.7497422 16.5306523,13.6607969 16.3519023,13.4811445 C15.9935,13.1236445 15.9935,12.5433945 16.3519023,12.1849922 L17.5371523,10.9997422 L7.83330469,10.9997422 C7.32640234,10.9997422 6.91665234,10.5899922 6.91665234,10.0830898 C6.91665234,9.5761875 7.32640234,9.1664375 7.83330469,9.1664375 L17.5371523,9.1664375 L16.3519023,7.9811875 C15.9935,7.6236875 15.9935,7.0434375 16.3519023,6.68503516 C16.7103047,6.32753516 17.2896523,6.32753516 17.6480547,6.68503516 L20.3971523,9.43413281 C20.481457,9.51848047 20.5493047,9.62023047 20.5960547,9.73298047 Z M13.3333047,1.83334766 L13.3333477,1.83334766 L13.3333477,2.75 L0.5,2.75 L0.5,1.83334766 C0.5,0.82225 1.32225,4.99600361e-14 2.33330469,4.99600361e-14 L11.5,4.99600361e-14 C12.5110547,4.99600361e-14 13.3333047,0.82225 13.3333047,1.83334766 Z M0.5,20.1666523 L0.5,16.5 L13.3333477,16.5 L13.3333477,20.1666523 C13.3333477,21.17775 12.5110977,22 11.5,22 L2.33334766,22 C1.32225,22 0.5,21.17775 0.5,20.1666523 Z M6.91665234,17.4166523 C6.41065234,17.4166523 6,17.8273477 6,18.3333477 C6,18.8393477 6.41065234,19.25 6.91665234,19.25 C7.42265234,19.25 7.83330469,18.8393047 7.83330469,18.3333047 C7.83330469,17.8273047 7.42265234,17.4166523 6.91665234,17.4166523 Z M5.08330469,10.0833477 C5.08330469,11.5995 6.31715234,12.8333477 7.83334766,12.8333477 L13.3333477,12.8333477 L13.3333477,14.6666953 L0.5,14.6666953 L0.5,4.58334766 L13.3333477,4.58334766 L13.3333047,7.33334766 L7.83330469,7.33334766 C6.31715234,7.33334766 5.08330469,8.56719531 5.08330469,10.0833477 Z" id="Combined-Shape"></path>
                </g>
            </g>
        </g>
    </g>
</svg>