<?xml version="1.0" encoding="UTF-8"?>
<svg width="11px" height="16px" viewBox="0 0 11 16" version="1.1" xmlns="http://www.w3.org/2000/svg" xmlns:xlink="http://www.w3.org/1999/xlink">
    <!-- Generator: Sketch 54.1 (76490) - https://sketchapp.com -->
    <title>priority</title>
    <desc>Created with Sketch.</desc>
    <g id="Mobile-V1" stroke="none" stroke-width="1" fill="none" fill-rule="evenodd">
        <g id="icons" transform="translate(-550.000000, -290.000000)" fill="#FF8646" fill-rule="nonzero">
            <path d="M553.443691,305.265941 C553.384298,305.265941 553.324188,305.254075 553.266762,305.229297 C553.065771,305.142622 552.957062,304.923205 553.009836,304.710794 L554.522232,298.622987 L550.447255,298.622987 C550.299755,298.622987 550.161735,298.550265 550.07834,298.428586 C549.994944,298.306906 549.976905,298.151951 550.030127,298.014379 L553.019556,290.285907 C553.086195,290.1136 553.251914,290 553.436655,290 L557.550124,290 C557.701262,290 557.842174,290.076329 557.924764,290.202929 C558.007296,290.329528 558.020355,290.489254 557.959411,290.627571 L556.189254,294.645599 L559.69027,294.645599 C559.853841,294.645599 560.004353,294.734898 560.08277,294.878463 C560.161186,295.021998 560.154984,295.1969 560.066579,295.334531 L553.82021,305.060329 C553.735741,305.191878 553.592086,305.265941 553.443691,305.265941 Z" id="priority"></path>
        </g>
    </g>
</svg>