<?xml version="1.0" encoding="UTF-8"?>
<svg width="27px" height="27px" viewBox="0 0 27 27" version="1.1" xmlns="http://www.w3.org/2000/svg" xmlns:xlink="http://www.w3.org/1999/xlink">
    <!-- Generator: Sketch 54.1 (76490) - https://sketchapp.com -->
    <title>prospect search</title>
    <desc>Created with Sketch.</desc>
    <g id="Mobile-V1" stroke="none" stroke-width="1" fill="none" fill-rule="evenodd">
        <g id="icons" transform="translate(-135.000000, -102.000000)" fill="#FFFFFF" fill-rule="nonzero">
            <path d="M153.953704,123.278882 C154.831811,122.599276 155.620104,121.809215 156.297751,120.929528 L161.194969,125.829715 C161.626274,126.258993 161.626274,126.964326 161.195729,127.393351 L160.415178,128.174662 C159.984886,128.605967 159.280566,128.605967 158.850275,128.174662 L153.953704,123.278882 Z M152.598624,121.924021 L152.582055,121.907456 C150.74591,123.262404 148.485046,124.071828 146.02689,124.071828 C144.29912,124.071828 142.663797,123.675837 141.20677,122.969629 C137.531842,121.17712 135,117.404573 135,113.0407 C135,106.94309 139.943239,102 146.041034,102 C152.138829,102 157.082069,106.94309 157.082069,113.0407 C157.082069,113.877814 156.988902,114.693169 156.812371,115.476961 C156.467117,116.977032 155.815072,118.359782 154.929535,119.560482 L154.942666,119.573621 C154.283833,120.46977 153.492919,121.262804 152.598624,121.924021 Z M145.997825,105.831491 C144.033096,105.831491 142.530656,107.333931 142.530656,109.29866 C142.530656,111.263389 144.033096,112.765828 145.997825,112.765828 C147.962554,112.765828 149.464994,111.263389 149.464994,109.29866 C149.464994,107.333931 147.962554,105.831491 145.997825,105.831491 Z M145.997825,121.370399 C148.887132,121.370399 151.429723,119.867959 152.932163,117.672085 C152.932163,115.36064 148.309271,114.089344 145.997825,114.089344 C143.686379,114.089344 139.063488,115.36064 139.063488,117.672085 C140.565927,119.868004 143.108518,121.370399 145.997825,121.370399 Z" id="prospect-search"></path>
        </g>
    </g>
</svg>