<?xml version="1.0" encoding="UTF-8"?>
<svg width="27px" height="28px" viewBox="0 0 27 28" version="1.1" xmlns="http://www.w3.org/2000/svg" xmlns:xlink="http://www.w3.org/1999/xlink">
    <!-- Generator: Sketch 54.1 (76490) - https://sketchapp.com -->
    <title>prospect search</title>
    <desc>Created with Sketch.</desc>
    <g id="Style-Guide" stroke="none" stroke-width="1" fill="none" fill-rule="evenodd">
        <g transform="translate(-61.000000, -5254.000000)" fill="#171E29" fill-rule="nonzero" id="prospect-search">
            <path d="M79.9537037,5276.00558 C80.831811,5275.32598 81.620104,5274.53592 82.2977512,5273.65623 L87.1949694,5278.55642 C87.6262736,5278.98569 87.6262736,5279.69103 87.1957292,5280.12005 L86.4151776,5280.90136 C85.9848864,5281.33267 85.2805665,5281.33267 84.8502753,5280.90136 L79.9537037,5276.00558 Z M78.5986238,5274.65072 L78.5820554,5274.63416 C76.7459103,5275.9891 74.4850457,5276.79853 72.0268904,5276.79853 C70.2991196,5276.79853 68.6637966,5276.40254 67.2067697,5275.69633 C63.5318417,5273.90382 61,5270.13127 61,5265.7674 C61,5259.66979 65.9432394,5254.7267 72.0410343,5254.7267 C78.1388292,5254.7267 83.0820686,5259.66979 83.0820686,5265.7674 C83.0820686,5266.60451 82.9889017,5267.41987 82.8123709,5268.20366 C82.4671166,5269.70373 81.8150722,5271.08648 80.9295354,5272.28718 L80.9426664,5272.30032 C80.283833,5273.19647 79.4929187,5273.9895 78.5986238,5274.65072 Z M71.9978251,5258.55819 C70.0330961,5258.55819 68.5306563,5260.06063 68.5306563,5262.02536 C68.5306563,5263.99009 70.0330961,5265.49253 71.9978251,5265.49253 C73.962554,5265.49253 75.4649939,5263.99009 75.4649939,5262.02536 C75.4649939,5260.06063 73.962554,5258.55819 71.9978251,5258.55819 Z M71.9978251,5274.0971 C74.8871324,5274.0971 77.4297228,5272.59466 78.9321626,5270.39879 C78.9321626,5268.08734 74.3092709,5266.81604 71.9978251,5266.81604 C69.6863792,5266.81604 65.0634875,5268.08734 65.0634875,5270.39879 C66.5659273,5272.5947 69.1085178,5274.0971 71.9978251,5274.0971 Z"></path>
        </g>
    </g>
</svg>