<?xml version="1.0" encoding="UTF-8"?>
<svg width="25px" height="27px" viewBox="0 0 25 27" version="1.1" xmlns="http://www.w3.org/2000/svg" xmlns:xlink="http://www.w3.org/1999/xlink">
    <!-- Generator: Sketch 54.1 (76490) - https://sketchapp.com -->
    <title>Shape</title>
    <desc>Created with Sketch.</desc>
    <g id="Style-Guide" stroke="none" stroke-width="1" fill="none" fill-rule="evenodd">
        <g transform="translate(-150.000000, -5317.000000)" fill="#171E29" fill-rule="nonzero" id="Shape">
            <path d="M173.430407,5321.11889 C173.787633,5321.11889 174.0772,5321.40846 174.0772,5321.76568 L174.0772,5330.17281 C174.0772,5337.28418 167.901798,5341.57108 162.613837,5343.08184 C162.497852,5343.11557 162.374767,5343.11557 162.258979,5343.08184 C156.971018,5341.57108 150.795616,5337.28418 150.795616,5330.17281 L150.795616,5321.76568 C150.795616,5321.40846 151.085184,5321.11889 151.442212,5321.11889 C155.204223,5321.11889 160.154486,5319.84917 161.918915,5317.49732 C161.946727,5317.46359 161.977696,5317.43263 162.011426,5317.40481 C162.297049,5317.17028 162.718973,5317.21151 162.953704,5317.49732 C164.718133,5319.84957 169.668199,5321.11889 173.430407,5321.11889 Z M167.04936,5334.28789 L167.04936,5329.67494 L166.12677,5329.67494 L166.12677,5326.90717 C166.12677,5324.86904 164.474538,5323.21681 162.436408,5323.21681 C160.398278,5323.21681 158.746047,5324.86904 158.746047,5326.90717 L158.746047,5329.67494 L157.823456,5329.67494 L157.823456,5334.28789 C157.823456,5335.30696 158.649572,5336.13307 159.668637,5336.13307 L165.204179,5336.13307 C166.223244,5336.13307 167.04936,5335.30696 167.04936,5334.28789 Z M162.436408,5325.06199 C163.454973,5325.06319 164.280381,5325.8886 164.281589,5326.90717 L164.281589,5329.67494 L160.591227,5329.67494 L160.591227,5326.90717 C160.592435,5325.8886 161.417844,5325.06319 162.436408,5325.06199 Z"></path>
        </g>
    </g>
</svg>