<?xml version="1.0" encoding="UTF-8"?>
<svg width="21px" height="12px" viewBox="0 0 21 12" version="1.1" xmlns="http://www.w3.org/2000/svg" xmlns:xlink="http://www.w3.org/1999/xlink">
    <!-- Generator: Sketch 54.1 (76490) - https://sketchapp.com -->
    <title>skip</title>
    <desc>Created with Sketch.</desc>
    <g id="Mobile-V1" stroke="none" stroke-width="1" fill="none" fill-rule="evenodd">
        <g id="icons" transform="translate(-661.000000, -267.000000)" fill="#FF8646" fill-rule="nonzero" stroke="#FF8646">
            <path d="M671.219617,278.280275 C671.366077,278.426735 671.558029,278.5 671.749911,278.5 C671.941792,278.5 672.133674,278.426735 672.280204,278.280275 L679.999907,270.560572 L679.999907,274.749976 C679.999907,275.164536 680.335366,275.499995 680.749926,275.499995 C681.164486,275.499995 681.499945,275.164536 681.499945,274.749976 L681.499945,268.750036 C681.499945,268.335476 681.164486,268.000018 680.749926,268.000018 L674.749986,268.000018 C674.335426,268.000018 673.999967,268.335476 673.999967,268.750036 C673.999967,269.164596 674.335426,269.500055 674.749986,269.500055 L678.93939,269.500055 L671.749911,276.689464 L663.28026,268.219743 C662.987269,267.926752 662.512663,267.926752 662.219743,268.219743 C661.926752,268.512733 661.926752,268.98734 662.219743,269.28026 L671.219617,278.280275 Z" id="skip"></path>
        </g>
    </g>
</svg>