<?xml version="1.0" encoding="UTF-8"?>
<svg width="25px" height="25px" viewBox="0 0 25 25" version="1.1" xmlns="http://www.w3.org/2000/svg" xmlns:xlink="http://www.w3.org/1999/xlink">
    <!-- Generator: Sketch 54.1 (76490) - https://sketchapp.com -->
    <title>support</title>
    <desc>Created with Sketch.</desc>
    <g id="Mobile-V1" stroke="none" stroke-width="1" fill="none" fill-rule="evenodd">
        <g id="icons" transform="translate(-135.000000, -178.000000)" fill="#FFFFFF" fill-rule="nonzero">
            <path d="M158.323904,184.225458 C157.206089,182.310441 155.689844,180.794196 153.77477,179.676438 C151.859354,178.558737 149.76841,178 147.500342,178 C145.232502,178 143.140931,178.558737 141.225857,179.676438 C139.310669,180.794025 137.794424,182.31027 136.676609,184.225458 C135.558737,186.14076 135,188.232331 135,190.5 C135,192.767783 135.558908,194.859012 136.676438,196.774428 C137.794196,198.689445 139.310441,200.20569 141.225629,201.323562 C143.140931,202.441206 145.232331,203 147.500114,203 C149.767897,203 151.859525,202.441206 153.774713,201.323562 C155.689787,200.206089 157.205975,198.689445 158.323676,196.774428 C159.441206,194.859183 159.999886,192.767669 159.999886,190.5 C159.999943,188.232103 159.441206,186.140475 158.323904,184.225458 Z M149.343495,198.11093 C149.343495,198.243106 149.300694,198.351895 149.215738,198.436801 C149.13113,198.521757 149.022341,198.56426 148.890165,198.56426 L146.168053,198.56426 C146.035778,198.56426 145.927038,198.521757 145.841983,198.436801 C145.756878,198.351845 145.714375,198.243106 145.714375,198.11093 L145.714375,195.388818 C145.714375,195.256642 145.756829,195.147853 145.841983,195.062947 C145.927038,194.97814 146.035778,194.935687 146.168053,194.935687 L148.890165,194.935687 C149.022341,194.935687 149.13113,194.97814 149.215738,195.062947 C149.300694,195.147902 149.343495,195.256642 149.343495,195.388818 L149.343495,198.11093 Z M152.795254,188.926322 C152.676981,189.276027 152.544806,189.562076 152.39833,189.784074 C152.251904,190.00617 152.041476,190.233034 151.767293,190.464465 C151.493707,190.695996 151.276178,190.861489 151.115105,190.960893 C150.954726,191.059951 150.722947,191.194907 150.42086,191.364818 C150.108892,191.544214 149.851591,191.778227 149.648511,192.06661 C149.445283,192.354795 149.343693,192.58861 149.343693,192.768005 C149.343693,192.900578 149.300893,193.009268 149.215887,193.094273 C149.13113,193.179229 149.02239,193.221682 148.890165,193.221682 L146.168202,193.221682 C146.035927,193.221682 145.927187,193.179229 145.842132,193.094273 C145.756978,193.009268 145.714624,192.900578 145.714624,192.768005 L145.714624,192.257624 C145.714624,191.624453 145.96254,191.031152 146.458769,190.478467 C146.954999,189.925534 147.500782,189.516793 148.096267,189.252144 C148.549597,189.044297 148.871049,188.831585 149.060027,188.614255 C149.249303,188.396925 149.343793,188.108393 149.343793,187.749453 C149.343793,187.437485 149.166433,187.158734 148.811962,186.912854 C148.457491,186.667222 148.053765,186.544381 147.599988,186.544381 C147.108426,186.544381 146.702167,186.657837 146.380765,186.884751 C146.068797,187.111415 145.662538,187.546224 145.161591,188.188781 C145.076536,188.302287 144.958363,188.359139 144.807121,188.359139 C144.693714,188.359139 144.603892,188.330837 144.537804,188.274283 L142.66669,186.856597 C142.44936,186.686437 142.411574,186.488075 142.553184,186.261211 C143.763023,184.24819 145.516062,183.241679 147.812502,183.241679 C148.6349,183.241679 149.438331,183.435474 150.222696,183.823013 C151.007011,184.210354 151.661583,184.75857 152.186263,185.467463 C152.710298,186.176107 152.973011,186.946469 152.973011,187.778152 C152.972316,188.193944 152.91303,188.576519 152.795254,188.926322 Z" id="support"></path>
        </g>
    </g>
</svg>