<?xml version="1.0" encoding="UTF-8"?>
<svg width="25px" height="26px" viewBox="0 0 25 26" version="1.1" xmlns="http://www.w3.org/2000/svg" xmlns:xlink="http://www.w3.org/1999/xlink">
    <!-- Generator: Sketch 54.1 (76490) - https://sketchapp.com -->
    <title>support</title>
    <desc>Created with Sketch.</desc>
    <g id="Style-Guide" stroke="none" stroke-width="1" fill="none" fill-rule="evenodd">
        <g transform="translate(-326.000000, -5255.000000)" fill="#171E29" fill-rule="nonzero" id="support">
            <path d="M348.715885,5261.91936 C347.63693,5260.07091 346.173396,5258.60738 344.324898,5257.52848 C342.47607,5256.44964 340.457816,5255.91032 338.268595,5255.91032 C336.079594,5255.91032 334.060735,5256.44964 332.212237,5257.52848 C330.363629,5258.60722 328.900095,5260.07075 327.821139,5261.91936 C326.742129,5263.76808 326.202816,5265.78694 326.202816,5267.97577 C326.202816,5270.16472 326.742294,5272.18325 327.820974,5274.03207 C328.899875,5275.88052 330.363409,5277.34405 332.212017,5278.42306 C334.060735,5279.50185 336.079429,5280.04122 338.268375,5280.04122 C340.45732,5280.04122 342.476235,5279.50185 344.324843,5278.42306 C346.173341,5277.34444 347.63682,5275.88052 348.715665,5274.03207 C349.794345,5272.18341 350.333603,5270.16461 350.333603,5267.97577 C350.333658,5265.78672 349.794345,5263.7678 348.715885,5261.91936 Z M340.047672,5275.32211 C340.047672,5275.44969 340.006359,5275.5547 339.924357,5275.63666 C339.84269,5275.71866 339.737682,5275.75968 339.610102,5275.75968 L336.982621,5275.75968 C336.854945,5275.75968 336.749985,5275.71866 336.667887,5275.63666 C336.585741,5275.55465 336.544716,5275.44969 336.544716,5275.32211 L336.544716,5272.69463 C336.544716,5272.56705 336.585693,5272.46204 336.667887,5272.38009 C336.749985,5272.29823 336.854945,5272.25725 336.982621,5272.25725 L339.610102,5272.25725 C339.737682,5272.25725 339.84269,5272.29823 339.924357,5272.38009 C340.006359,5272.46209 340.047672,5272.56705 340.047672,5272.69463 L340.047672,5275.32211 Z M343.379434,5266.4568 C343.265273,5266.79435 343.137692,5267.07045 342.996309,5267.28473 C342.854973,5267.49911 342.65186,5267.71809 342.387209,5267.94147 C342.123134,5268.16495 341.913167,5268.32469 341.757693,5268.42064 C341.60289,5268.51626 341.379169,5268.64652 341.087583,5268.81052 C340.78646,5268.98368 340.538105,5269.20956 340.342085,5269.48792 C340.145921,5269.76609 340.047863,5269.99177 340.047863,5270.16493 C340.047863,5270.29289 340.006551,5270.39781 339.9245,5270.47986 C339.84269,5270.56186 339.73773,5270.60284 339.610102,5270.60284 L336.982765,5270.60284 C336.855089,5270.60284 336.750129,5270.56186 336.668031,5270.47986 C336.585837,5270.39781 336.544955,5270.29289 336.544955,5270.16493 L336.544955,5269.67229 C336.544955,5269.06113 336.784253,5268.48846 337.263232,5267.95499 C337.74221,5267.42128 338.269019,5267.02674 338.843803,5266.7713 C339.281373,5266.57067 339.59165,5266.36536 339.774059,5266.15558 C339.956755,5265.94581 340.047959,5265.66731 340.047959,5265.32084 C340.047959,5265.01972 339.876765,5264.75066 339.534617,5264.51333 C339.192469,5264.27624 338.802778,5264.15767 338.364777,5264.15767 C337.890303,5264.15767 337.498168,5264.26718 337.187939,5264.4862 C336.886816,5264.70499 336.49468,5265.12468 336.011149,5265.7449 C335.929051,5265.85446 335.814985,5265.90934 335.669001,5265.90934 C335.559536,5265.90934 335.472837,5265.88202 335.409047,5265.82743 L333.60298,5264.45903 C333.393206,5264.29478 333.356734,5264.10332 333.49342,5263.88434 C334.6612,5261.9413 336.353297,5260.96978 338.569903,5260.96978 C339.363711,5260.96978 340.139212,5261.15684 340.896308,5261.5309 C341.653357,5261.90478 342.285174,5262.43394 342.791614,5263.11819 C343.297431,5263.80219 343.551011,5264.54578 343.551011,5265.34855 C343.55034,5265.74988 343.493116,5266.11916 343.379434,5266.4568 Z"></path>
        </g>
    </g>
</svg>