<?xml version="1.0" encoding="UTF-8"?>
<svg width="40px" height="41px" viewBox="0 0 40 41" version="1.1" xmlns="http://www.w3.org/2000/svg" xmlns:xlink="http://www.w3.org/1999/xlink">
    <!-- Generator: Sketch 54.1 (76490) - https://sketchapp.com -->
    <title>Group 11</title>
    <desc>Created with Sketch.</desc>
    <g id="Style-Guide" stroke="none" stroke-width="1" fill="none" fill-rule="evenodd">
        <g transform="translate(-933.000000, -5273.000000)" fill="#235BED" id="Group-11">
            <g transform="translate(933.000000, 5273.242572)">
                <circle id="Oval" opacity="0.2" cx="20" cy="20" r="20"></circle>
                <g id="25644" transform="translate(8.750000, 11.464000)" fill-rule="nonzero">
                    <path d="M17.9396129,10.6438894 C17.9396129,11.0623272 17.7935806,11.4173088 17.5016406,11.7094977 L11.6874747,17.5354424 C11.3796498,17.8275484 11.0203134,17.9735806 10.6097972,17.9735806 C10.1914839,17.9735806 9.83625346,17.8275484 9.54414747,17.5354424 L1.077553,9.0571106 C0.777691244,8.76492166 0.522995392,8.36647465 0.313714286,7.86110599 C0.104474654,7.35573733 2.13162821e-14,6.89408295 2.13162821e-14,6.47568664 L2.13162821e-14,1.54970046 C2.13162821e-14,1.13914286 0.14997235,0.783870968 0.450041475,0.483884793 C0.749903226,0.184064516 1.10525806,0.0339677419 1.51569124,0.0339677419 L6.44167742,0.0339677419 C6.86007373,0.0339677419 7.32201843,0.13856682 7.8272212,0.347723502 C8.33246544,0.55683871 8.73505991,0.811327189 9.03500461,1.11152074 L17.5014747,9.56621198 C17.7935806,9.87416129 17.9396129,10.2334147 17.9396129,10.6438894 Z M4.86099539,4.89483871 C5.15691705,4.59875115 5.30502304,4.24165438 5.30506452,3.82325806 C5.30506452,3.40486175 5.15691705,3.04759908 4.86099539,2.75167742 C4.56490783,2.45558986 4.20768664,2.30748387 3.78924885,2.30748387 C3.37097696,2.30748387 3.01375576,2.45558986 2.7176682,2.75167742 C2.42158065,3.04759908 2.27368203,3.40482028 2.27368203,3.82325806 C2.27368203,4.24165438 2.42158065,4.59875115 2.7176682,4.89483871 C3.01375576,5.19088479 3.37097696,5.33899078 3.78924885,5.33899078 C4.20768664,5.33899078 4.56490783,5.19088479 4.86099539,4.89483871 Z M22.048424,9.56633641 C22.3406544,9.87420276 22.4866866,10.2334147 22.4868525,10.6439309 C22.4868525,11.0623687 22.3406544,11.4173088 22.048424,11.7095392 L16.2342581,17.5354839 C15.9267235,17.8275899 15.56747,17.9736221 15.1567465,17.9736221 C14.8727281,17.9736221 14.6398065,17.9183779 14.4581475,17.8078065 C14.2767373,17.6972765 14.0676636,17.519682 13.8305115,17.2749816 L19.3960369,11.7094977 C19.6882673,11.4172673 19.8344654,11.0623272 19.8344654,10.6438894 C19.8344654,10.2334147 19.6882673,9.87420276 19.3960369,9.56633641 L10.9295253,1.11168664 C10.6295392,0.811617512 10.2269447,0.557129032 9.72157604,0.347847926 C9.21641475,0.138732719 8.75463594,0.0341336406 8.33623963,0.0341336406 L10.9886682,0.0341336406 C11.407106,0.0341336406 11.8689677,0.138732719 12.3740046,0.347847926 C12.8792903,0.557004608 13.2819677,0.811493088 13.5818295,1.11168664 L22.048424,9.56633641 Z" id="Combined-Shape"></path>
                </g>
            </g>
        </g>
    </g>
</svg>