<?xml version="1.0" encoding="UTF-8"?>
<svg width="28px" height="25px" viewBox="0 0 28 25" version="1.1" xmlns="http://www.w3.org/2000/svg" xmlns:xlink="http://www.w3.org/1999/xlink">
    <!-- Generator: Sketch 54.1 (76490) - https://sketchapp.com -->
    <title>templates</title>
    <desc>Created with Sketch.</desc>
    <g id="Mobile-V1" stroke="none" stroke-width="1" fill="none" fill-rule="evenodd">
        <g id="icons" transform="translate(-41.000000, -305.000000)" fill="#747474" fill-rule="nonzero">
            <path d="M41.0010349,326.139883 C40.9807507,325.684063 41.2603507,325.267948 41.6893166,325.113338 L43.5318416,324.44949 L51.8508646,326.653904 C52.2597191,326.761953 52.6795225,326.816755 53.100248,326.816755 C53.6419875,326.816755 54.1761203,326.727377 54.6882978,326.551043 L66.390873,322.524445 L68.2094257,322.932204 C68.6644384,323.034663 68.9966508,323.426403 69.0223518,323.892249 C69.0481682,324.357865 68.7613073,324.784065 68.3201823,324.935793 L54.0729126,329.837611 C53.7581609,329.946062 53.4298095,330 53.1003056,330 C52.8438711,330 52.5863994,329.967153 52.3354393,329.900826 L41.7751789,327.102636 C41.3341693,326.985483 41.0203395,326.595703 41.0010349,326.139883 Z M41.0010349,321.066399 C40.9807507,320.610637 41.2603507,320.194464 41.6893166,320.039969 L43.5318416,319.376063 L51.850807,321.580478 C52.2596615,321.688468 52.6794649,321.742809 53.1001904,321.742809 C53.6419298,321.742809 54.1760627,321.653835 54.6882402,321.477558 L66.3908153,317.450903 L68.2093681,317.858663 C68.6643808,317.961121 68.9965931,318.352803 69.0222942,318.818822 C69.0481105,319.284265 68.7612497,319.710581 68.3201247,319.862309 L54.072855,324.764184 C53.7581033,324.872578 53.4297519,324.927034 53.100248,324.927034 C52.8438135,324.927034 52.5863417,324.893842 52.3353817,324.827342 L41.7760433,322.029267 C41.3350913,321.912171 41.0203395,321.522218 41.0010349,321.066399 Z M54.6882978,316.403555 L66.3908153,312.377419 L68.2093681,312.785293 C68.6643808,312.887694 68.9965931,313.279376 69.0222942,313.745338 C69.0481105,314.210781 68.7612497,314.637096 68.3201247,314.788882 L54.072855,319.690815 C53.7581033,319.799151 53.4297519,319.853147 53.100248,319.853147 C52.8438135,319.853147 52.5863417,319.8203 52.3353817,319.753915 L41.7760433,316.955783 C41.3350913,316.83863 41.0203395,316.448734 41.0010349,315.99303 C40.9807507,315.53721 41.2603507,315.121037 41.6893166,314.966485 L43.5318416,314.302579 L51.8508646,316.506475 C52.2597191,316.614465 52.6795225,316.668864 53.100248,316.668864 C53.6419875,316.668864 54.1761203,316.579832 54.6882978,316.403555 Z M41.7751789,311.881895 C41.3341693,311.764684 41.0203395,311.374904 41.0010349,310.919084 C40.9807507,310.463265 41.2603507,310.047092 41.6893166,309.89254 L54.7768109,305.17668 C55.1035488,305.058951 55.445788,305 55.7899865,305 C56.0086761,305 56.2281725,305.023915 56.4441537,305.072378 L68.2094257,307.711348 C68.6644384,307.813807 68.9966508,308.205431 69.0223518,308.67145 C69.0481682,309.136951 68.7613073,309.563151 68.3201823,309.714995 L54.0729126,314.616812 C53.7581609,314.725206 53.4298095,314.779201 53.1003056,314.779201 C52.8438711,314.779201 52.5863994,314.746412 52.3354393,314.680027 L41.7751789,311.881895 Z" id="templates"></path>
        </g>
    </g>
</svg>