<?xml version="1.0" encoding="UTF-8"?>
<svg width="40px" height="41px" viewBox="0 0 40 41" version="1.1" xmlns="http://www.w3.org/2000/svg" xmlns:xlink="http://www.w3.org/1999/xlink">
    <!-- Generator: Sketch 54.1 (76490) - https://sketchapp.com -->
    <title>Group</title>
    <desc>Created with Sketch.</desc>
    <g id="Style-Guide" stroke="none" stroke-width="1" fill="none" fill-rule="evenodd">
        <g transform="translate(-933.000000, -5193.000000)" fill="#FF0000" id="Group">
            <g transform="translate(933.000000, 5193.242572)">
                <circle id="Oval" opacity="0.2" cx="20" cy="20" r="20"></circle>
                <path d="M30.8129263,14.7050451 C30.5386925,13.5137698 29.564307,12.6348806 28.3912986,12.5037756 C25.6135832,12.1937018 22.8021089,12.1920832 20.0035831,12.1937018 C17.204595,12.1920832 14.3926582,12.1937018 11.6149428,12.5037756 C10.442628,12.6348806 9.46893621,13.5137698 9.19470242,14.7050451 C8.80439329,16.4015487 8.8,18.253436 8.8,20.0001156 C8.8,21.7467952 8.8,23.5984514 9.19030913,25.2947238 C9.46408047,26.4857678 10.4380035,27.364657 11.6110119,27.4959933 C14.3884961,27.8062983 17.2002017,27.8079168 19.9991898,27.8062983 C22.7986405,27.8079168 25.6096524,27.8062983 28.3869053,27.4959933 C29.5592201,27.3648882 30.5338368,26.485999 30.8080706,25.2947238 C31.1986109,23.5982201 31.1999983,21.746564 31.1999983,20.0001156 C31.1999983,18.253436 31.2032354,16.4015487 30.8129263,14.7050451 Z M17.1093299,23.4768266 C17.1093299,20.999011 17.1093299,18.5470928 17.1093299,16.069046 C19.4833251,17.3077226 21.8415969,18.538075 24.2306218,19.784382 C21.8489962,21.0195901 19.4895682,22.2425433 17.1093299,23.4768266 Z" id="Shape" fill-rule="nonzero"></path>
            </g>
        </g>
    </g>
</svg>